<?xml version="1.0" encoding="UTF-8"?>
<!DOCTYPE svg PUBLIC "-//W3C//DTD SVG 1.1//EN" "http://www.w3.org/Graphics/SVG/1.1/DTD/svg11.dtd">
<svg xmlns="http://www.w3.org/2000/svg" version="1.1" width="2481px" height="2481px" style="shape-rendering:geometricPrecision; text-rendering:geometricPrecision; image-rendering:optimizeQuality; fill-rule:evenodd; clip-rule:evenodd" xmlns:xlink="http://www.w3.org/1999/xlink">
<g><path style="opacity:0.999" fill="#9f81b9" d="M 667.5,831.5 C 793.136,1049.78 919.136,1267.78 1045.5,1485.5C 1041.43,1491.75 1036.76,1497.58 1031.5,1503C 1025.92,1506.63 1020.26,1507.13 1014.5,1504.5C 887.017,1282.2 759.017,1060.2 630.5,838.5C 633.503,836.738 636.837,835.572 640.5,835C 649.436,833.285 658.436,832.118 667.5,831.5 Z"/></g>
<g><path style="opacity:0.999" fill="#9980b9" d="M 667.5,831.5 C 682.894,831.098 698.228,831.764 713.5,833.5C 831.136,1037.78 949.136,1241.78 1067.5,1445.5C 1061.7,1459.77 1054.37,1473.1 1045.5,1485.5C 919.136,1267.78 793.136,1049.78 667.5,831.5 Z"/></g>
<g><path style="opacity:0.996" fill="#927fb8" d="M 713.5,833.5 C 719.564,834.054 725.064,836.054 730,839.5C 733.793,849.202 737.793,858.869 742,868.5C 745.771,874.936 751.271,879.103 758.5,881C 774.359,884.048 790.025,887.881 805.5,892.5C 807.453,891.844 809.453,891.511 811.5,891.5C 895.136,1037.11 979.136,1182.45 1063.5,1327.5C 1059.72,1344.44 1055.39,1361.27 1050.5,1378C 1051.06,1383.61 1052.89,1388.78 1056,1393.5C 1062,1400.83 1068,1408.17 1074,1415.5C 1075.84,1419.81 1075.84,1424.15 1074,1428.5C 1072.32,1434.39 1070.15,1440.06 1067.5,1445.5C 949.136,1241.78 831.136,1037.78 713.5,833.5 Z"/></g>
<g><path style="opacity:0.998" fill="#a582b9" d="M 630.5,838.5 C 759.017,1060.2 887.017,1282.2 1014.5,1504.5C 1005.57,1502.8 996.57,1502.3 987.5,1503C 982.582,1504.13 978.248,1506.29 974.5,1509.5C 853.071,1298.97 731.404,1088.63 609.5,878.5C 613.655,874.205 616.822,869.205 619,863.5C 621.488,856.548 623.821,849.548 626,842.5C 627.371,840.959 628.871,839.625 630.5,838.5 Z"/></g>
<g><path style="opacity:0.998" fill="#857bb4" d="M 853.5,868.5 C 936.584,1013 1019.92,1157.34 1103.5,1301.5C 1100.62,1305.58 1096.62,1307.58 1091.5,1307.5C 1007.24,1161.97 923.236,1016.3 839.5,870.5C 843.926,867.566 848.593,866.899 853.5,868.5 Z"/></g>
<g><path style="opacity:0.997" fill="#8079b2" d="M 853.5,868.5 C 862.622,870.87 871.289,874.204 879.5,878.5C 955.709,1012.36 1032.71,1145.69 1110.5,1278.5C 1110.21,1283.91 1109.38,1289.24 1108,1294.5C 1107.06,1297.26 1105.56,1299.59 1103.5,1301.5C 1019.92,1157.34 936.584,1013 853.5,868.5 Z"/></g>
<g><path style="opacity:0.997" fill="#877db5" d="M 839.5,870.5 C 923.236,1016.3 1007.24,1161.97 1091.5,1307.5C 1091.16,1308.34 1090.49,1308.67 1089.5,1308.5C 1006.09,1162.67 922.419,1017 838.5,871.5C 838.5,870.833 838.833,870.5 839.5,870.5 Z"/></g>
<g><path style="opacity:0.998" fill="#887db6" d="M 838.5,871.5 C 922.419,1017 1006.09,1162.67 1089.5,1308.5C 1088.29,1309.23 1086.96,1309.57 1085.5,1309.5C 1002.32,1164.47 918.657,1019.8 834.5,875.5C 835.5,873.833 836.833,872.5 838.5,871.5 Z"/></g>
<g><path style="opacity:0.996" fill="#b384ba" d="M 530.5,885.5 C 666.665,1122.5 803.331,1359.17 940.5,1595.5C 933.921,1603.31 926.255,1609.98 917.5,1615.5C 872.998,1539.84 828.998,1463.84 785.5,1387.5C 787.561,1373.6 790.394,1359.94 794,1346.5C 784.596,1348.31 775.429,1350.98 766.5,1354.5C 761.263,1346.37 756.263,1338.03 751.5,1329.5C 760.18,1325.38 769.18,1322.05 778.5,1319.5C 763.106,1311.8 747.773,1304.14 732.5,1296.5C 652.167,1157.17 571.833,1017.83 491.5,878.5C 500.775,872.53 510.442,871.696 520.5,876C 523.703,879.371 527.036,882.538 530.5,885.5 Z"/></g>
<g><path style="opacity:0.998" fill="#8c7eb7" d="M 834.5,875.5 C 918.657,1019.8 1002.32,1164.47 1085.5,1309.5C 1077.98,1312.18 1071.48,1316.52 1066,1322.5C 1064.91,1324.08 1064.07,1325.74 1063.5,1327.5C 979.136,1182.45 895.136,1037.11 811.5,891.5C 820.039,887.399 827.706,882.066 834.5,875.5 Z"/></g>
<g><path style="opacity:0.997" fill="#b684ba" d="M 491.5,878.5 C 571.833,1017.83 652.167,1157.17 732.5,1296.5C 715.188,1288.51 699.188,1278.51 684.5,1266.5C 612.5,1141.17 540.5,1015.83 468.5,890.5C 475.686,885.739 483.353,881.739 491.5,878.5 Z"/></g>
<g><path style="opacity:0.999" fill="#ab82ba" d="M 609.5,878.5 C 731.404,1088.63 853.071,1298.97 974.5,1509.5C 965.872,1521.13 955.872,1531.46 944.5,1540.5C 819.136,1324.45 694.136,1108.11 569.5,891.5C 579.667,888.207 590,885.374 600.5,883C 603.806,882.014 606.806,880.514 609.5,878.5 Z"/></g>
<g><path style="opacity:0.988" fill="#7977b0" d="M 879.5,878.5 C 886.817,881.155 893.484,884.822 899.5,889.5C 909.263,906.7 919.263,923.7 929.5,940.5C 928.43,949.031 929.93,957.031 934,964.5C 939.655,970.577 945.822,976.077 952.5,981C 954.141,982.129 955.141,983.629 955.5,985.5C 988.775,1044.1 1022.44,1102.43 1056.5,1160.5C 1057.48,1169.55 1060.81,1177.72 1066.5,1185C 1068.86,1186.51 1071.19,1188.01 1073.5,1189.5C 1085.66,1211.83 1098.33,1233.83 1111.5,1255.5C 1111.65,1263.2 1111.31,1270.86 1110.5,1278.5C 1032.71,1145.69 955.709,1012.36 879.5,878.5 Z"/></g>
<g><path style="opacity:0.998" fill="#b083ba" d="M 530.5,885.5 C 542.034,896.439 555.034,898.439 569.5,891.5C 694.136,1108.11 819.136,1324.45 944.5,1540.5C 938.955,1548.26 937.121,1556.93 939,1566.5C 940.342,1573.53 941.842,1580.53 943.5,1587.5C 943.263,1590.55 942.263,1593.22 940.5,1595.5C 803.331,1359.17 666.665,1122.5 530.5,885.5 Z"/></g>
<g><path style="opacity:0.966" fill="#7576ae" d="M 899.5,889.5 C 902.004,890.584 904.337,891.917 906.5,893.5C 913.998,907.834 921.998,921.834 930.5,935.5C 930.634,937.292 930.301,938.958 929.5,940.5C 919.263,923.7 909.263,906.7 899.5,889.5 Z"/></g>
<g><path style="opacity:0.991" fill="#b682b9" d="M 468.5,890.5 C 540.5,1015.83 612.5,1141.17 684.5,1266.5C 663.693,1250.03 645.693,1231.03 630.5,1209.5C 621.002,1191.83 611.002,1174.5 600.5,1157.5C 594.41,1144.25 589.077,1130.58 584.5,1116.5C 582.02,1113.46 579.02,1112.8 575.5,1114.5C 535.017,1042.87 494.017,971.534 452.5,900.5C 457.545,896.805 462.878,893.472 468.5,890.5 Z"/></g>
<g><path style="opacity:0.956" fill="#7275ad" d="M 906.5,893.5 C 912.14,897.147 917.473,901.147 922.5,905.5C 925.566,911.964 928.899,918.298 932.5,924.5C 932.089,928.221 931.422,931.888 930.5,935.5C 921.998,921.834 913.998,907.834 906.5,893.5 Z"/></g>
<g><path style="opacity:0.995" fill="#b47eb6" d="M 452.5,900.5 C 494.017,971.534 535.017,1042.87 575.5,1114.5C 564.85,1122 555.183,1130.67 546.5,1140.5C 543.331,1136.17 540.664,1131.5 538.5,1126.5C 536.957,1121.98 534.623,1117.98 531.5,1114.5C 528.331,1110.17 525.664,1105.5 523.5,1100.5C 521.957,1095.98 519.623,1091.98 516.5,1088.5C 504.412,1069.33 493.079,1049.66 482.5,1029.5C 480.957,1024.98 478.623,1020.98 475.5,1017.5C 463.412,998.331 452.079,978.665 441.5,958.5C 439.957,953.976 437.623,949.976 434.5,946.5C 432.5,943.833 430.5,941.167 428.5,938.5C 425.68,932.42 425.846,926.42 429,920.5C 435.576,912.304 443.41,905.637 452.5,900.5 Z"/></g>
<g><path style="opacity:0.81" fill="#6f74ac" d="M 922.5,905.5 C 928.786,909.281 932.453,914.781 933.5,922C 933.472,923.07 933.139,923.903 932.5,924.5C 928.899,918.298 925.566,911.964 922.5,905.5 Z"/></g>
<g><path style="opacity:0.922" fill="#fefffe" d="M 1894.5,919.5 C 1925.28,918.887 1948.95,931.387 1965.5,957C 1962.24,959.549 1958.74,961.716 1955,963.5C 1934.11,934.871 1906.61,926.037 1872.5,937C 1839.36,953.359 1826.19,979.859 1833,1016.5C 1845.47,1054.34 1871.64,1070.84 1911.5,1066C 1930.56,1061.73 1945.06,1051.23 1955,1034.5C 1958.59,1036.71 1962.09,1039.04 1965.5,1041.5C 1950.29,1066.28 1927.95,1078.95 1898.5,1079.5C 1865.56,1078.96 1841.39,1064.29 1826,1035.5C 1812.45,1002.5 1816.78,972.164 1839,944.5C 1854.37,929.105 1872.87,920.771 1894.5,919.5 Z"/></g>
<g><path style="opacity:0.952" fill="#fefffe" d="M 1261.5,922.5 C 1284.5,922.333 1307.5,922.5 1330.5,923C 1354.9,929.953 1365.74,946.119 1363,971.5C 1360.51,982.307 1354.68,990.807 1345.5,997C 1365.56,1007.16 1373.39,1023.32 1369,1045.5C 1364.06,1061.44 1353.56,1071.61 1337.5,1076C 1312.17,1076.5 1286.84,1076.67 1261.5,1076.5C 1261.5,1025.17 1261.5,973.833 1261.5,922.5 Z M 1273.5,934.5 C 1291.84,934.333 1310.17,934.5 1328.5,935C 1347.06,941.619 1353.89,954.452 1349,973.5C 1344.49,983.844 1336.65,990.011 1325.5,992C 1308.17,992.5 1290.84,992.667 1273.5,992.5C 1273.5,973.167 1273.5,953.833 1273.5,934.5 Z M 1273.5,1004.5 C 1293.84,1004.33 1314.17,1004.5 1334.5,1005C 1353.03,1011.89 1360.2,1025.05 1356,1044.5C 1351.06,1057.05 1341.89,1063.88 1328.5,1065C 1310.17,1065.5 1291.84,1065.67 1273.5,1065.5C 1273.5,1045.17 1273.5,1024.83 1273.5,1004.5 Z"/></g>
<g><path style="opacity:0.982" fill="#fefffe" d="M 1459.5,922.5 C 1463.5,922.5 1467.5,922.5 1471.5,922.5C 1471.5,970.167 1471.5,1017.83 1471.5,1065.5C 1495.83,1065.5 1520.17,1065.5 1544.5,1065.5C 1544.5,1069.17 1544.5,1072.83 1544.5,1076.5C 1516.17,1076.5 1487.83,1076.5 1459.5,1076.5C 1459.5,1025.17 1459.5,973.833 1459.5,922.5 Z"/></g>
<g><path style="opacity:0.929" fill="#fefffe" d="M 1676.5,922.5 C 1681.21,922.173 1685.88,922.507 1690.5,923.5C 1710.46,974.421 1730.13,1025.42 1749.5,1076.5C 1744.9,1076.8 1740.4,1076.47 1736,1075.5C 1731.26,1063.13 1726.43,1050.79 1721.5,1038.5C 1696.17,1037.17 1670.83,1037.17 1645.5,1038.5C 1640.57,1050.79 1635.74,1063.13 1631,1075.5C 1626.55,1076.8 1622.05,1076.8 1617.5,1075.5C 1637.37,1024.55 1657.04,973.555 1676.5,922.5 Z M 1683.5,939.5 C 1694.67,967.655 1705.67,995.989 1716.5,1024.5C 1694.51,1025.67 1672.51,1025.83 1650.5,1025C 1661.6,996.527 1672.6,968.027 1683.5,939.5 Z"/></g>
<g><path style="opacity:0.94" fill="#fefffe" d="M 2053.5,922.5 C 2057.5,922.5 2061.5,922.5 2065.5,922.5C 2065.33,945.836 2065.5,969.169 2066,992.5C 2090.47,969.698 2114.64,946.531 2138.5,923C 2144.5,922.333 2150.5,922.333 2156.5,923C 2130.79,947.842 2105.12,972.676 2079.5,997.5C 2105.35,1024.18 2131.68,1050.35 2158.5,1076C 2152.5,1076.67 2146.5,1076.67 2140.5,1076C 2115.97,1051.14 2091.14,1026.64 2066,1002.5C 2065.5,1027.16 2065.33,1051.83 2065.5,1076.5C 2061.5,1076.5 2057.5,1076.5 2053.5,1076.5C 2053.5,1025.17 2053.5,973.833 2053.5,922.5 Z"/></g>
<g><path style="opacity:0.994" fill="#b179b3" d="M 428.5,938.5 C 430.5,941.167 432.5,943.833 434.5,946.5C 436.043,951.024 438.377,955.024 441.5,958.5C 452.079,978.665 463.412,998.331 475.5,1017.5C 477.043,1022.02 479.377,1026.02 482.5,1029.5C 493.079,1049.66 504.412,1069.33 516.5,1088.5C 518.043,1093.02 520.377,1097.02 523.5,1100.5C 525.664,1105.5 528.331,1110.17 531.5,1114.5C 533.043,1119.02 535.377,1123.02 538.5,1126.5C 540.664,1131.5 543.331,1136.17 546.5,1140.5C 534.576,1156.68 525.576,1174.35 519.5,1193.5C 481.167,1127.5 442.833,1061.5 404.5,995.5C 405.504,994.317 406.338,992.984 407,991.5C 413.969,985.532 420.636,979.199 427,972.5C 429.976,967.764 431.476,962.598 431.5,957C 431.102,950.714 430.102,944.547 428.5,938.5 Z"/></g>
<g><path style="opacity:1" fill="#b27db4" d="M 434.5,946.5 C 437.623,949.976 439.957,953.976 441.5,958.5C 438.377,955.024 436.043,951.024 434.5,946.5 Z"/></g>
<g><path style="opacity:0.983" fill="#7576ae" d="M 955.5,985.5 C 959.898,988.895 963.564,992.895 966.5,997.5C 994.412,1047.66 1023.08,1097.33 1052.5,1146.5C 1054.75,1150.8 1056.08,1155.47 1056.5,1160.5C 1022.44,1102.43 988.775,1044.1 955.5,985.5 Z"/></g>
<g><path style="opacity:0.995" fill="#af75b1" d="M 404.5,995.5 C 442.833,1061.5 481.167,1127.5 519.5,1193.5C 517.944,1202.17 516.61,1210.84 515.5,1219.5C 474.331,1149.17 433.665,1078.5 393.5,1007.5C 397.176,1003.46 400.843,999.459 404.5,995.5 Z"/></g>
<g><path style="opacity:0.984" fill="#7275ad" d="M 966.5,997.5 C 970.464,1000.65 974.798,1002.98 979.5,1004.5C 1001.66,1044.17 1024.33,1083.5 1047.5,1122.5C 1047.33,1125.85 1047.5,1129.18 1048,1132.5C 1049.8,1137.1 1051.3,1141.76 1052.5,1146.5C 1023.08,1097.33 994.412,1047.66 966.5,997.5 Z"/></g>
<g><path style="opacity:0.988" fill="#5a6ca5" d="M 1010.5,1000.5 C 1014.18,999.209 1017.84,999.542 1021.5,1001.5C 1036.75,1029.67 1052.75,1057.33 1069.5,1084.5C 1069.79,1088.57 1068.46,1091.9 1065.5,1094.5C 1047.15,1063.13 1028.82,1031.8 1010.5,1000.5 Z"/></g>
<g><path style="opacity:0.99" fill="#606fa7" d="M 1010.5,1000.5 C 1028.82,1031.8 1047.15,1063.13 1065.5,1094.5C 1063.5,1097.17 1061.17,1099.5 1058.5,1101.5C 1040.09,1068.34 1021.42,1035.34 1002.5,1002.5C 1004.99,1001.23 1007.66,1000.56 1010.5,1000.5 Z"/></g>
<g><path style="opacity:0.955" fill="#556ba3" d="M 1021.5,1001.5 C 1024.41,1002.91 1026.91,1004.91 1029,1007.5C 1032.75,1012.02 1036.25,1016.68 1039.5,1021.5C 1046.33,1034.5 1053.66,1047.17 1061.5,1059.5C 1065.56,1066.83 1068.56,1074.66 1070.5,1083C 1070.43,1083.76 1070.1,1084.26 1069.5,1084.5C 1052.75,1057.33 1036.75,1029.67 1021.5,1001.5 Z"/></g>
<g><path style="opacity:0.991" fill="#6771a9" d="M 999.5,1002.5 C 1018.83,1035.83 1038.17,1069.17 1057.5,1102.5C 1055.86,1105.15 1054.19,1107.82 1052.5,1110.5C 1031.66,1075.5 1011.33,1040.17 991.5,1004.5C 994.167,1003.83 996.833,1003.17 999.5,1002.5 Z"/></g>
<g><path style="opacity:0.993" fill="#6d73ab" d="M 979.5,1004.5 C 983.5,1004.5 987.5,1004.5 991.5,1004.5C 1011.33,1040.17 1031.66,1075.5 1052.5,1110.5C 1050.06,1114.14 1048.4,1118.14 1047.5,1122.5C 1024.33,1083.5 1001.66,1044.17 979.5,1004.5 Z"/></g>
<g><path style="opacity:0.995" fill="#ad72af" d="M 393.5,1007.5 C 433.665,1078.5 474.331,1149.17 515.5,1219.5C 515.853,1236.95 517.52,1254.29 520.5,1271.5C 520.034,1274.49 519.701,1277.49 519.5,1280.5C 467.848,1191.2 416.182,1101.87 364.5,1012.5C 374.977,1015.03 384.643,1013.37 393.5,1007.5 Z"/></g>
<g><path style="opacity:0.997" fill="#aa6dac" d="M 357.5,1011.5 C 410.079,1104.33 463.412,1196.66 517.5,1288.5C 515.014,1294.81 511.514,1300.48 507,1305.5C 498.923,1313.42 490.423,1320.75 481.5,1327.5C 426.833,1232.17 372.167,1136.83 317.5,1041.5C 323.139,1031.08 330.139,1021.58 338.5,1013C 344.713,1009.09 351.046,1008.59 357.5,1011.5 Z"/></g>
<g><path style="opacity:0.996" fill="#ac71ae" d="M 357.5,1011.5 C 359.861,1011.67 362.194,1012.01 364.5,1012.5C 416.182,1101.87 467.848,1191.2 519.5,1280.5C 518.833,1283.17 518.167,1285.83 517.5,1288.5C 463.412,1196.66 410.079,1104.33 357.5,1011.5 Z"/></g>
<g><path style="opacity:1" fill="#b27db4" d="M 475.5,1017.5 C 478.623,1020.98 480.957,1024.98 482.5,1029.5C 479.377,1026.02 477.043,1022.02 475.5,1017.5 Z"/></g>
<g><path style="opacity:0.721" fill="#526aa2" d="M 1039.5,1021.5 C 1048.85,1032.89 1056.19,1045.55 1061.5,1059.5C 1053.66,1047.17 1046.33,1034.5 1039.5,1021.5 Z"/></g>
<g><path style="opacity:1" fill="#6470a8" d="M 999.5,1002.5 C 1000.5,1002.5 1001.5,1002.5 1002.5,1002.5C 1021.42,1035.34 1040.09,1068.34 1058.5,1101.5C 1058.5,1102.17 1058.17,1102.5 1057.5,1102.5C 1038.17,1069.17 1018.83,1035.83 999.5,1002.5 Z"/></g>
<g><path style="opacity:0.996" fill="#a86aa9" d="M 317.5,1041.5 C 372.167,1136.83 426.833,1232.17 481.5,1327.5C 479.525,1329.14 477.525,1330.8 475.5,1332.5C 421.416,1238 367.083,1143.66 312.5,1049.5C 313.68,1046.46 315.347,1043.79 317.5,1041.5 Z"/></g>
<g><path style="opacity:0.997" fill="#a768a9" d="M 312.5,1049.5 C 367.083,1143.66 421.416,1238 475.5,1332.5C 470.873,1335.79 466.54,1339.46 462.5,1343.5C 408.998,1251.83 355.998,1159.83 303.5,1067.5C 305.992,1061.18 308.992,1055.18 312.5,1049.5 Z"/></g>
<g><path style="opacity:0.99" fill="#a665a7" d="M 303.5,1067.5 C 355.998,1159.83 408.998,1251.83 462.5,1343.5C 438.723,1366.57 443.057,1381.41 475.5,1388C 482.925,1392.95 484.092,1399.12 479,1406.5C 475.922,1410.08 472.422,1413.08 468.5,1415.5C 417.569,1327.3 366.902,1238.97 316.5,1150.5C 320.873,1139.39 319.373,1129.06 312,1119.5C 307.7,1114.2 303.034,1109.2 298,1104.5C 294.827,1099.98 293.827,1094.98 295,1089.5C 297.175,1081.79 300.008,1074.46 303.5,1067.5 Z"/></g>
<g><path style="opacity:1" fill="#b27db4" d="M 516.5,1088.5 C 519.623,1091.98 521.957,1095.98 523.5,1100.5C 520.377,1097.02 518.043,1093.02 516.5,1088.5 Z"/></g>
<g><path style="opacity:1" fill="#b27db4" d="M 531.5,1114.5 C 534.623,1117.98 536.957,1121.98 538.5,1126.5C 535.377,1123.02 533.043,1119.02 531.5,1114.5 Z"/></g>
<g><path style="opacity:0.994" fill="#a361a5" d="M 316.5,1150.5 C 366.902,1238.97 417.569,1327.3 468.5,1415.5C 466.195,1418.61 464.529,1422.11 463.5,1426C 465.307,1433.14 468.807,1439.3 474,1444.5C 477.33,1451.12 475.497,1455.45 468.5,1457.5C 415.404,1364.97 362.071,1272.63 308.5,1180.5C 310.252,1170.15 312.919,1160.15 316.5,1150.5 Z"/></g>
<g><path style="opacity:0.921" fill="#fefffe" d="M 1307.5,1151.5 C 1333.32,1150.06 1351.65,1160.89 1362.5,1184C 1359.37,1186.4 1356.03,1188.57 1352.5,1190.5C 1341.37,1168.27 1323.7,1160.1 1299.5,1166C 1283.51,1172.15 1277.01,1183.65 1280,1200.5C 1281.4,1204.79 1283.9,1208.29 1287.5,1211C 1292.34,1213.92 1297.34,1216.59 1302.5,1219C 1320.37,1224.06 1337.37,1231.06 1353.5,1240C 1365.11,1249.92 1369.28,1262.42 1366,1277.5C 1361.87,1293.63 1351.7,1303.8 1335.5,1308C 1317.56,1312.46 1300.23,1310.79 1283.5,1303C 1271.73,1296.45 1263.73,1286.78 1259.5,1274C 1262.84,1271.33 1266.5,1269.16 1270.5,1267.5C 1278.47,1288.09 1293.64,1298.42 1316,1298.5C 1327.82,1298.79 1338.15,1295.12 1347,1287.5C 1357.55,1273.9 1356.72,1261.07 1344.5,1249C 1339.66,1246.08 1334.66,1243.41 1329.5,1241C 1311.97,1236.27 1295.3,1229.61 1279.5,1221C 1267.98,1211.45 1263.82,1199.29 1267,1184.5C 1271.06,1168.77 1280.89,1158.61 1296.5,1154C 1300.31,1153.2 1303.98,1152.37 1307.5,1151.5 Z"/></g>
<g><path style="opacity:0.921" fill="#fefffe" d="M 1522.5,1151.5 C 1548.32,1150.06 1566.65,1160.89 1577.5,1184C 1574.37,1186.4 1571.03,1188.57 1567.5,1190.5C 1556.37,1168.27 1538.7,1160.1 1514.5,1166C 1498.51,1172.15 1492.01,1183.65 1495,1200.5C 1496.4,1204.79 1498.9,1208.29 1502.5,1211C 1507.34,1213.92 1512.34,1216.59 1517.5,1219C 1535.37,1224.06 1552.37,1231.06 1568.5,1240C 1580.11,1249.92 1584.28,1262.42 1581,1277.5C 1576.87,1293.63 1566.7,1303.8 1550.5,1308C 1532.56,1312.46 1515.23,1310.79 1498.5,1303C 1486.73,1296.45 1478.73,1286.78 1474.5,1274C 1477.84,1271.33 1481.5,1269.16 1485.5,1267.5C 1493.47,1288.09 1508.64,1298.42 1531,1298.5C 1542.82,1298.79 1553.15,1295.12 1562,1287.5C 1572.55,1273.9 1571.72,1261.07 1559.5,1249C 1554.66,1246.08 1549.66,1243.41 1544.5,1241C 1526.97,1236.27 1510.3,1229.61 1494.5,1221C 1482.98,1211.45 1478.82,1199.29 1482,1184.5C 1486.06,1168.77 1495.89,1158.61 1511.5,1154C 1515.31,1153.2 1518.98,1152.37 1522.5,1151.5 Z"/></g>
<g><path style="opacity:0.921" fill="#fefffe" d="M 2095.5,1151.5 C 2121.32,1150.06 2139.65,1160.89 2150.5,1184C 2147.37,1186.4 2144.03,1188.57 2140.5,1190.5C 2129.37,1168.27 2111.7,1160.1 2087.5,1166C 2071.51,1172.15 2065.01,1183.65 2068,1200.5C 2069.4,1204.79 2071.9,1208.29 2075.5,1211C 2080.34,1213.92 2085.34,1216.59 2090.5,1219C 2108.37,1224.06 2125.37,1231.06 2141.5,1240C 2153.11,1249.92 2157.28,1262.42 2154,1277.5C 2149.87,1293.63 2139.7,1303.8 2123.5,1308C 2105.56,1312.46 2088.23,1310.79 2071.5,1303C 2059.73,1296.45 2051.73,1286.78 2047.5,1274C 2050.84,1271.33 2054.5,1269.16 2058.5,1267.5C 2066.47,1288.09 2081.64,1298.42 2104,1298.5C 2115.82,1298.79 2126.15,1295.12 2135,1287.5C 2145.55,1273.9 2144.72,1261.07 2132.5,1249C 2127.66,1246.08 2122.66,1243.41 2117.5,1241C 2099.97,1236.27 2083.3,1229.61 2067.5,1221C 2055.98,1211.45 2051.82,1199.29 2055,1184.5C 2059.06,1168.77 2068.89,1158.61 2084.5,1154C 2088.31,1153.2 2091.98,1152.37 2095.5,1151.5 Z"/></g>
<g><path style="opacity:0.923" fill="#fefffe" d="M 1414.5,1154.5 C 1418.83,1154.5 1423.17,1154.5 1427.5,1154.5C 1427.5,1205.5 1427.5,1256.5 1427.5,1307.5C 1423.17,1307.5 1418.83,1307.5 1414.5,1307.5C 1414.5,1256.5 1414.5,1205.5 1414.5,1154.5 Z"/></g>
<g><path style="opacity:0.976" fill="#fefffe" d="M 1612.5,1154.5 C 1648.5,1154.5 1684.5,1154.5 1720.5,1154.5C 1720.5,1158.5 1720.5,1162.5 1720.5,1166.5C 1704.5,1166.5 1688.5,1166.5 1672.5,1166.5C 1672.5,1213.5 1672.5,1260.5 1672.5,1307.5C 1668.5,1307.5 1664.5,1307.5 1660.5,1307.5C 1660.5,1260.5 1660.5,1213.5 1660.5,1166.5C 1644.5,1166.5 1628.5,1166.5 1612.5,1166.5C 1612.5,1162.5 1612.5,1158.5 1612.5,1154.5 Z"/></g>
<g><path style="opacity:0.94" fill="#fefffe" d="M 1765.5,1154.5 C 1794.83,1154.5 1824.17,1154.5 1853.5,1154.5C 1853.5,1158.5 1853.5,1162.5 1853.5,1166.5C 1828.5,1166.5 1803.5,1166.5 1778.5,1166.5C 1778.5,1185.83 1778.5,1205.17 1778.5,1224.5C 1801.83,1224.5 1825.17,1224.5 1848.5,1224.5C 1848.5,1228.5 1848.5,1232.5 1848.5,1236.5C 1825.17,1236.5 1801.83,1236.5 1778.5,1236.5C 1778.5,1256.5 1778.5,1276.5 1778.5,1296.5C 1803.83,1296.5 1829.17,1296.5 1854.5,1296.5C 1854.5,1300.17 1854.5,1303.83 1854.5,1307.5C 1824.83,1307.5 1795.17,1307.5 1765.5,1307.5C 1765.5,1256.5 1765.5,1205.5 1765.5,1154.5 Z"/></g>
<g><path style="opacity:0.927" fill="#fefffe" d="M 1903.5,1154.5 C 1926.84,1154.33 1950.17,1154.5 1973.5,1155C 1999.3,1162.42 2011.47,1179.59 2010,1206.5C 2006.67,1225.5 1995.84,1238 1977.5,1244C 1989.71,1264.92 2002.04,1285.75 2014.5,1306.5C 2009.5,1307.83 2004.5,1307.83 1999.5,1306.5C 1987.83,1286.5 1976.17,1266.5 1964.5,1246.5C 1948.51,1245.5 1932.51,1245.17 1916.5,1245.5C 1916.5,1266.17 1916.5,1286.83 1916.5,1307.5C 1912.17,1307.5 1907.83,1307.5 1903.5,1307.5C 1903.5,1256.5 1903.5,1205.5 1903.5,1154.5 Z M 1916.5,1166.5 C 1936.22,1166.05 1955.89,1166.55 1975.5,1168C 1995.81,1178.27 2001.98,1194.1 1994,1215.5C 1988.42,1224.88 1980.26,1230.71 1969.5,1233C 1951.84,1233.5 1934.17,1233.67 1916.5,1233.5C 1916.5,1211.17 1916.5,1188.83 1916.5,1166.5 Z"/></g>
<g><path style="opacity:0.756" fill="#b481b7" d="M 600.5,1157.5 C 611.002,1174.5 621.002,1191.83 630.5,1209.5C 617.958,1193.77 607.958,1176.43 600.5,1157.5 Z"/></g>
<g><path style="opacity:0.994" fill="#a15ea4" d="M 308.5,1180.5 C 362.071,1272.63 415.404,1364.97 468.5,1457.5C 465.647,1462.76 466.147,1467.76 470,1472.5C 475.034,1477.2 479.7,1482.2 484,1487.5C 484.333,1498.17 484.667,1508.83 485,1519.5C 485.739,1522.55 486.572,1525.55 487.5,1528.5C 423.412,1419.33 360.079,1309.66 297.5,1199.5C 303.978,1194.89 307.644,1188.55 308.5,1180.5 Z"/></g>
<g><path style="opacity:0.978" fill="#7576af" d="M 1073.5,1189.5 C 1075.17,1190.17 1076.83,1190.83 1078.5,1191.5C 1089,1211.17 1100,1230.5 1111.5,1249.5C 1111.5,1251.5 1111.5,1253.5 1111.5,1255.5C 1098.33,1233.83 1085.66,1211.83 1073.5,1189.5 Z"/></g>
<g><path style="opacity:0.971" fill="#7275ad" d="M 1078.5,1191.5 C 1082.01,1193.23 1085.68,1194.56 1089.5,1195.5C 1096.01,1207.86 1103.01,1219.86 1110.5,1231.5C 1110.7,1237.51 1111.03,1243.51 1111.5,1249.5C 1100,1230.5 1089,1211.17 1078.5,1191.5 Z"/></g>
<g><path style="opacity:0.913" fill="#6e73ac" d="M 1089.5,1195.5 C 1101.81,1197.99 1108.31,1205.66 1109,1218.5C 1109.58,1222.83 1110.08,1227.17 1110.5,1231.5C 1103.01,1219.86 1096.01,1207.86 1089.5,1195.5 Z"/></g>
<g><path style="opacity:0.998" fill="#9f5ca3" d="M 297.5,1199.5 C 360.079,1309.66 423.412,1419.33 487.5,1528.5C 506.665,1562.84 526.332,1596.84 546.5,1630.5C 541.526,1635.14 536.526,1639.81 531.5,1644.5C 448.086,1498.67 364.419,1353 280.5,1207.5C 286.287,1205.11 291.954,1202.44 297.5,1199.5 Z"/></g>
<g><path style="opacity:0.998" fill="#9d59a2" d="M 280.5,1207.5 C 364.419,1353 448.086,1498.67 531.5,1644.5C 526.762,1648.29 521.429,1649.29 515.5,1647.5C 432.753,1503 349.753,1358.67 266.5,1214.5C 270.031,1210.07 274.697,1207.73 280.5,1207.5 Z"/></g>
<g><path style="opacity:0.998" fill="#9b57a1" d="M 266.5,1214.5 C 349.753,1358.67 432.753,1503 515.5,1647.5C 512.016,1646.34 508.683,1645.01 505.5,1643.5C 424.512,1502.86 343.512,1362.19 262.5,1221.5C 262.555,1218.39 263.888,1216.05 266.5,1214.5 Z"/></g>
<g><path style="opacity:0.986" fill="#9955a0" d="M 262.5,1221.5 C 343.512,1362.19 424.512,1502.86 505.5,1643.5C 480.262,1635.14 458.096,1621.8 439,1603.5C 437.455,1600.7 436.622,1597.7 436.5,1594.5C 438.415,1586.09 439.748,1577.59 440.5,1569C 440.515,1563.56 439.349,1558.4 437,1553.5C 423.887,1541.72 411.387,1529.22 399.5,1516C 394.372,1512.57 388.705,1511.07 382.5,1511.5C 361.753,1475 340.753,1438.67 319.5,1402.5C 322.107,1396.77 322.941,1390.77 322,1384.5C 316.223,1368.39 311.223,1352.05 307,1335.5C 304.575,1331.87 301.408,1329.03 297.5,1327C 288.321,1323 278.987,1319.5 269.5,1316.5C 268,1312.83 266,1309.49 263.5,1306.5C 261.579,1302.49 260.412,1298.16 260,1293.5C 258.545,1275.52 258.212,1257.52 259,1239.5C 259.217,1233.18 260.383,1227.18 262.5,1221.5 Z"/></g>
<g><path style="opacity:0.665" fill="#96519e" d="M 263.5,1306.5 C 266,1309.49 268,1312.83 269.5,1316.5C 265.977,1314.13 263.977,1310.79 263.5,1306.5 Z"/></g>
<g><path style="opacity:0.965" fill="#b684ba" d="M 751.5,1329.5 C 756.263,1338.03 761.263,1346.37 766.5,1354.5C 758.642,1358.69 751.308,1363.69 744.5,1369.5C 739.5,1360.83 734.5,1352.17 729.5,1343.5C 736.495,1338.33 743.828,1333.67 751.5,1329.5 Z"/></g>
<g><path style="opacity:0.965" fill="#b682b9" d="M 729.5,1343.5 C 734.5,1352.17 739.5,1360.83 744.5,1369.5C 739.806,1373.53 735.473,1377.86 731.5,1382.5C 726.167,1373.83 720.833,1365.17 715.5,1356.5C 719.745,1351.71 724.411,1347.38 729.5,1343.5 Z"/></g>
<g><path style="opacity:0.967" fill="#b47eb6" d="M 715.5,1356.5 C 720.833,1365.17 726.167,1373.83 731.5,1382.5C 721.839,1396.49 715.506,1411.82 712.5,1428.5C 705.584,1417 698.917,1405.34 692.5,1393.5C 697.889,1379.72 705.555,1367.38 715.5,1356.5 Z"/></g>
<g><path style="opacity:0.97" fill="#fefffe" d="M 1623.5,1376.5 C 1654.12,1372.47 1676.78,1383.81 1691.5,1410.5C 1681.87,1416.99 1671.87,1422.99 1661.5,1428.5C 1652.69,1411.73 1639.69,1407.23 1622.5,1415C 1618.08,1421.55 1619.08,1427.22 1625.5,1432C 1638.88,1437.76 1652.55,1442.76 1666.5,1447C 1688.76,1456.01 1698.26,1472.51 1695,1496.5C 1690.13,1516.37 1677.63,1528.54 1657.5,1533C 1640.13,1536.01 1623.13,1534.68 1606.5,1529C 1592.27,1522.44 1582.61,1511.78 1577.5,1497C 1586.91,1490.54 1596.74,1484.71 1607,1479.5C 1610.55,1484.7 1614.72,1489.53 1619.5,1494C 1622.8,1496.43 1626.46,1498.1 1630.5,1499C 1636.83,1499.67 1643.17,1499.67 1649.5,1499C 1657.33,1497.18 1660.49,1492.34 1659,1484.5C 1657.88,1482.38 1656.38,1480.54 1654.5,1479C 1637.72,1472.97 1621.05,1466.64 1604.5,1460C 1588.14,1450.11 1581.31,1435.61 1584,1416.5C 1586.14,1401.72 1593.64,1390.56 1606.5,1383C 1612.05,1380.21 1617.72,1378.04 1623.5,1376.5 Z"/></g>
<g><path style="opacity:0.993" fill="#fefffe" d="M 1261.5,1379.5 C 1273.17,1379.5 1284.83,1379.5 1296.5,1379.5C 1296.5,1430.17 1296.5,1480.83 1296.5,1531.5C 1284.83,1531.5 1273.17,1531.5 1261.5,1531.5C 1261.5,1480.83 1261.5,1430.17 1261.5,1379.5 Z"/></g>
<g><path style="opacity:0.982" fill="#fefffe" d="M 1343.5,1379.5 C 1352.51,1379.33 1361.51,1379.5 1370.5,1380C 1389.7,1406.24 1408.54,1432.74 1427,1459.5C 1427.5,1432.84 1427.67,1406.17 1427.5,1379.5C 1439.5,1379.5 1451.5,1379.5 1463.5,1379.5C 1463.5,1430.17 1463.5,1480.83 1463.5,1531.5C 1454.16,1531.67 1444.83,1531.5 1435.5,1531C 1416.79,1504.41 1397.96,1477.91 1379,1451.5C 1378.5,1478.16 1378.33,1504.83 1378.5,1531.5C 1366.83,1531.5 1355.17,1531.5 1343.5,1531.5C 1343.5,1480.83 1343.5,1430.17 1343.5,1379.5 Z"/></g>
<g><path style="opacity:1" fill="#fefffe" d="M 1717.5,1379.5 C 1755.17,1379.5 1792.83,1379.5 1830.5,1379.5C 1830.5,1390.5 1830.5,1401.5 1830.5,1412.5C 1817.5,1412.5 1804.5,1412.5 1791.5,1412.5C 1791.5,1452.17 1791.5,1491.83 1791.5,1531.5C 1779.83,1531.5 1768.17,1531.5 1756.5,1531.5C 1756.5,1491.83 1756.5,1452.17 1756.5,1412.5C 1743.5,1412.5 1730.5,1412.5 1717.5,1412.5C 1717.5,1401.5 1717.5,1390.5 1717.5,1379.5 Z"/></g>
<g><path style="opacity:0.986" fill="#fefffe" d="M 1866.5,1379.5 C 1898.5,1379.5 1930.5,1379.5 1962.5,1379.5C 1962.5,1390.5 1962.5,1401.5 1962.5,1412.5C 1942.5,1412.5 1922.5,1412.5 1902.5,1412.5C 1902.5,1421.17 1902.5,1429.83 1902.5,1438.5C 1920.5,1438.5 1938.5,1438.5 1956.5,1438.5C 1956.5,1449.5 1956.5,1460.5 1956.5,1471.5C 1938.5,1471.5 1920.5,1471.5 1902.5,1471.5C 1902.5,1480.5 1902.5,1489.5 1902.5,1498.5C 1922.83,1498.5 1943.17,1498.5 1963.5,1498.5C 1963.5,1509.5 1963.5,1520.5 1963.5,1531.5C 1931.17,1531.5 1898.83,1531.5 1866.5,1531.5C 1866.5,1480.83 1866.5,1430.17 1866.5,1379.5 Z"/></g>
<g><path style="opacity:0.989" fill="#fefffe" d="M 2003.5,1379.5 C 2015.52,1379.17 2027.52,1379.5 2039.5,1380.5C 2052.58,1402.33 2065.92,1424 2079.5,1445.5C 2093.03,1423.8 2106.37,1401.97 2119.5,1380C 2131.5,1379.5 2143.5,1379.33 2155.5,1379.5C 2155.5,1430.17 2155.5,1480.83 2155.5,1531.5C 2143.83,1531.5 2132.17,1531.5 2120.5,1531.5C 2120.67,1503.16 2120.5,1474.83 2120,1446.5C 2107.42,1466.67 2095.08,1487 2083,1507.5C 2078.97,1509.44 2075.97,1508.44 2074,1504.5C 2062.73,1484.9 2051.06,1465.57 2039,1446.5C 2038.5,1474.83 2038.33,1503.16 2038.5,1531.5C 2026.83,1531.5 2015.17,1531.5 2003.5,1531.5C 2003.5,1480.83 2003.5,1430.17 2003.5,1379.5 Z"/></g>
<g><path style="opacity:0.995" fill="#b684ba" d="M 785.5,1387.5 C 828.998,1463.84 872.998,1539.84 917.5,1615.5C 910.341,1620.92 902.675,1625.58 894.5,1629.5C 856.404,1562.97 818.071,1496.63 779.5,1430.5C 780.489,1415.9 782.489,1401.56 785.5,1387.5 Z"/></g>
<g><path style="opacity:0.963" fill="#b17ab3" d="M 692.5,1393.5 C 698.917,1405.34 705.584,1417 712.5,1428.5C 711.156,1444.62 713.156,1460.29 718.5,1475.5C 708.759,1476.04 700.092,1479.37 692.5,1485.5C 690.011,1481.56 688.177,1477.23 687,1472.5C 682.001,1452.54 681.668,1432.54 686,1412.5C 687.303,1405.75 689.47,1399.42 692.5,1393.5 Z"/></g>
<g><path style="opacity:0.992" fill="#96509d" d="M 319.5,1402.5 C 340.753,1438.67 361.753,1475 382.5,1511.5C 377.137,1511.95 371.804,1512.62 366.5,1513.5C 347.752,1481 328.752,1448.67 309.5,1416.5C 312.846,1411.8 316.179,1407.13 319.5,1402.5 Z"/></g>
<g><path style="opacity:0.988" fill="#944e9c" d="M 309.5,1416.5 C 328.752,1448.67 347.752,1481 366.5,1513.5C 360.943,1516.77 355.277,1517.11 349.5,1514.5C 333.179,1485.86 316.845,1457.19 300.5,1428.5C 301.928,1423.39 304.928,1419.39 309.5,1416.5 Z"/></g>
<g><path style="opacity:0.922" fill="#934c9c" d="M 300.5,1428.5 C 316.845,1457.19 333.179,1485.86 349.5,1514.5C 347.745,1513.93 346.078,1513.09 344.5,1512C 324.454,1490.43 309.621,1465.6 300,1437.5C 299.195,1434.3 299.362,1431.3 300.5,1428.5 Z"/></g>
<g><path style="opacity:0.994" fill="#b682b9" d="M 779.5,1430.5 C 818.071,1496.63 856.404,1562.97 894.5,1629.5C 889.253,1632.92 883.587,1635.59 877.5,1637.5C 845.335,1580.5 812.669,1523.83 779.5,1467.5C 778.866,1455.19 778.866,1442.86 779.5,1430.5 Z"/></g>
<g><path style="opacity:0.982" fill="#b47fb7" d="M 779.5,1467.5 C 812.669,1523.83 845.335,1580.5 877.5,1637.5C 869.942,1641.87 861.942,1643.37 853.5,1642C 828.127,1621.11 809.46,1595.28 797.5,1564.5C 795.157,1563.73 792.823,1563.06 790.5,1562.5C 790.573,1560.97 789.906,1559.97 788.5,1559.5C 786.957,1554.98 784.623,1550.98 781.5,1547.5C 780.921,1544.67 779.588,1542.34 777.5,1540.5C 776.921,1537.67 775.588,1535.34 773.5,1533.5C 773.34,1531.85 772.674,1530.51 771.5,1529.5C 771.735,1528.9 772.235,1528.57 773,1528.5C 777.273,1530.04 781.606,1531.37 786,1532.5C 786.5,1532.17 787,1531.83 787.5,1531.5C 782.373,1510.48 779.706,1489.15 779.5,1467.5 Z"/></g>
<g><path style="opacity:0.942" fill="#b684b9" d="M 714.5,1485.5 C 738.152,1483.07 753.652,1493.07 761,1515.5C 764.266,1538.48 755.099,1553.98 733.5,1562C 709.53,1566.44 693.363,1557.27 685,1534.5C 681.072,1509.67 690.905,1493.33 714.5,1485.5 Z M 719.5,1501.5 C 737.126,1501.96 745.626,1510.96 745,1528.5C 738.673,1545.58 727.173,1550.41 710.5,1543C 699.785,1534.39 697.618,1523.89 704,1511.5C 708.205,1506.49 713.372,1503.16 719.5,1501.5 Z"/></g>
<g><path style="opacity:0.985" fill="#a15ea4" d="M 487.5,1528.5 C 495.264,1539.39 505.931,1545.05 519.5,1545.5C 534.167,1570.83 548.833,1596.17 563.5,1621.5C 557.713,1624.31 552.047,1627.31 546.5,1630.5C 526.332,1596.84 506.665,1562.84 487.5,1528.5 Z"/></g>
<g><path style="opacity:0.938" fill="#b27bb4" d="M 771.5,1529.5 C 772.674,1530.51 773.34,1531.85 773.5,1533.5C 774.079,1536.33 775.412,1538.66 777.5,1540.5C 778.079,1543.33 779.412,1545.66 781.5,1547.5C 783.043,1552.02 785.377,1556.02 788.5,1559.5C 789.906,1559.97 790.573,1560.97 790.5,1562.5C 780.354,1561.71 770.688,1559.21 761.5,1555C 767.482,1547.56 770.815,1539.06 771.5,1529.5 Z"/></g>
<g><path style="opacity:1" fill="#b27db4" d="M 773.5,1533.5 C 775.588,1535.34 776.921,1537.67 777.5,1540.5C 775.412,1538.66 774.079,1536.33 773.5,1533.5 Z"/></g>
<g><path style="opacity:0.987" fill="#a665a7" d="M 575.5,1538.5 C 586.405,1558.74 597.739,1578.74 609.5,1598.5C 600.4,1603.38 591.067,1607.72 581.5,1611.5C 568.861,1589.18 556.195,1566.85 543.5,1544.5C 554.04,1541.86 564.706,1539.86 575.5,1538.5 Z"/></g>
<g><path style="opacity:0.985" fill="#a768a9" d="M 575.5,1538.5 C 582.255,1538.21 588.922,1538.54 595.5,1539.5C 604.833,1555.5 614.167,1571.5 623.5,1587.5C 619.432,1591.9 614.765,1595.57 609.5,1598.5C 597.739,1578.74 586.405,1558.74 575.5,1538.5 Z"/></g>
<g><path style="opacity:0.971" fill="#a86aa9" d="M 595.5,1539.5 C 599.845,1539.84 603.845,1541.17 607.5,1543.5C 613.411,1555.66 620.078,1567.33 627.5,1578.5C 627.308,1582.1 625.974,1585.1 623.5,1587.5C 614.167,1571.5 604.833,1555.5 595.5,1539.5 Z"/></g>
<g><path style="opacity:1" fill="#b27db4" d="M 777.5,1540.5 C 779.588,1542.34 780.921,1544.67 781.5,1547.5C 779.412,1545.66 778.079,1543.33 777.5,1540.5 Z"/></g>
<g><path style="opacity:0.861" fill="#a96aaa" d="M 607.5,1543.5 C 613.169,1547 617.669,1551.67 621,1557.5C 623.879,1564.3 626.045,1571.3 627.5,1578.5C 620.078,1567.33 613.411,1555.66 607.5,1543.5 Z"/></g>
<g><path style="opacity:0.987" fill="#a361a5" d="M 543.5,1544.5 C 556.195,1566.85 568.861,1589.18 581.5,1611.5C 575.535,1614.82 569.535,1618.15 563.5,1621.5C 548.833,1596.17 534.167,1570.83 519.5,1545.5C 527.534,1545.7 535.534,1545.36 543.5,1544.5 Z"/></g>
<g><path style="opacity:1" fill="#b27db4" d="M 781.5,1547.5 C 784.623,1550.98 786.957,1554.98 788.5,1559.5C 785.377,1556.02 783.043,1552.02 781.5,1547.5 Z"/></g>
</svg>
