<svg width="100" height="100" viewBox="0 0 100 100" fill="none" xmlns="http://www.w3.org/2000/svg">
<circle cx="50" cy="50" r="50" fill="#27AE60" fill-opacity="0.1"/>
<path d="M65.2008 40.5V59.5C65.2008 67.1 63.3008 69 55.7008 69H44.3008C36.7008 69 34.8008 67.1 34.8008 59.5V40.5C34.8008 32.9 36.7008 31 44.3008 31H55.7008C63.3008 31 65.2008 32.9 65.2008 40.5Z" stroke="#27AE60" stroke-width="2.85" stroke-linecap="round" stroke-linejoin="round"/>
<path opacity="0.4" d="M53.7992 37.6484H46.1992" stroke="#27AE60" stroke-width="2.85" stroke-linecap="round" stroke-linejoin="round"/>
<path opacity="0.4" d="M49.9997 63.4916C51.6262 63.4916 52.9447 62.173 52.9447 60.5466C52.9447 58.9201 51.6262 57.6016 49.9997 57.6016C48.3732 57.6016 47.0547 58.9201 47.0547 60.5466C47.0547 62.173 48.3732 63.4916 49.9997 63.4916Z" stroke="#27AE60" stroke-width="2.85" stroke-linecap="round" stroke-linejoin="round"/>
</svg>
